<svg xmlns:xlink="http://www.w3.org/1999/xlink" xmlns="http://www.w3.org/2000/svg" width="28" height="15" viewBox="0 0 28 15" fill="none" class="DS__Login__tinkoff-icon"><path d="M20.142 0H7.458C3.34 0 0 3.358 0 7.5 0 11.642 3.34 15 7.458 15h12.684c4.119 0 7.458-3.358 7.458-7.5 0-4.142-3.34-7.5-7.458-7.5z" fill="#303030"></path><path d="M4.327 3.856h8.034v4.063a2.92 2.92 0 01-1.45 2.526l-2.567 1.49-2.568-1.49a2.918 2.918 0 01-1.45-2.526V3.856z" fill="#FFDD2D"></path><path fill-rule="evenodd" clip-rule="evenodd" d="M6.531 5.995v1.263c.172-.195.484-.327.842-.327h.388V8.4c0 .39-.106.732-.263.921h1.689c-.156-.189-.262-.53-.262-.92v-1.47h.388c.358 0 .67.132.842.328V5.996H6.53h.001z" fill="#333333"></path><path d="M16.948 10.048V5.273h-1.497v4.775h1.497zm3.61 0c1.895 0 2.832-1.014 2.832-2.388 0-1.374-.938-2.387-2.673-2.387h-2.673v4.775h2.515-.001zm-.151-3.632c1.028 0 1.456.462 1.456 1.244 0 .723-.427 1.274-1.456 1.274h-.918V6.416h.918z" fill="#FFFFFF"></path></svg>