<svg xmlns:xlink="http://www.w3.org/1999/xlink" xmlns="http://www.w3.org/2000/svg" width="20" height="20" viewBox="0 0 20 20"><path d="M16 16a1 1 0 1 1 0-2 1 1 0 0 1 0 2M4 16a1 1 0 1 1 0-2 1 1 0 0 1 0 2m6-12a1 1 0 1 1 0 2 1 1 0 0 1 0-2m-3.682 9.119l3.064-5.184a3 3 0 0 0 1.236 0l3.064 5.184c-.23.282-.407.605-.522.958H6.84a2.965 2.965 0 0 0-.522-.958M16 12c-.212 0-.419.023-.618.065l-3.064-5.184A2.97 2.97 0 0 0 13 5c0-1.654-1.346-3-3-3S7 3.346 7 5c0 .716.262 1.364.682 1.881l-3.064 5.184A3.004 3.004 0 0 0 1 15c0 1.654 1.346 3 3 3a3 3 0 0 0 2.792-1.923h6.416A3 3 0 0 0 16 18c1.654 0 3-1.346 3-3s-1.346-3-3-3" fill="#A7C42A"></path></svg>